<svg width="151" height="30" viewBox="0 0 151 30" fill="none" xmlns="http://www.w3.org/2000/svg">
<path fill-rule="evenodd" clip-rule="evenodd" d="M26.6406 22.778C28.0422 20.6804 28.8483 18.247 28.9806 15.7368H28.9998V15.0811L29 15H28.9998V13.9368C28.9998 13.3845 28.5521 12.9368 27.9998 12.9368H23.9331C23.3808 12.9368 22.9331 13.3845 22.9331 13.9368V15H22.9331C22.9331 19.3815 19.3812 22.9333 14.9997 22.9333C10.6183 22.9333 7.06641 19.3814 7.06641 15C7.06641 10.6186 10.6181 7.06679 14.9995 7.06665V7.06667H16.7998C17.3521 7.06667 17.7998 6.61895 17.7998 6.06667V2C17.7998 1.44772 17.3521 1 16.7998 1H15C14.9998 1 14.9997 1 14.9995 1C12.2307 1.0001 9.52417 1.82118 7.22202 3.35943C4.91974 4.89777 3.12532 7.08427 2.06569 9.64243C1.00607 12.2006 0.728819 15.0155 1.26901 17.7313C1.80921 20.447 3.14258 22.9416 5.10051 24.8995C7.05845 26.8574 9.55301 28.1908 12.2687 28.731C14.9845 29.2712 17.7994 28.9939 20.3576 27.9343C22.9157 26.8747 25.1022 25.0803 26.6406 22.778Z" fill="#38BDF8"/>
<circle cx="15.0002" cy="14.9999" r="4.66667" fill="#6495FB"/>
<rect x="22.2119" y="1" width="6.78788" height="7.63636" rx="1" fill="#38BDF8"/>
<path d="M37.632 24V7.056H41.4V24H37.632ZM40.512 17.352V14.112H48.984V17.352H40.512ZM40.512 10.296V7.056H49.368V10.296H40.512ZM51.4523 24V12.336H55.1243V24H51.4523ZM53.3003 10.728C52.7243 10.728 52.2443 10.536 51.8603 10.152C51.4923 9.752 51.3083 9.272 51.3083 8.712C51.3083 8.136 51.4923 7.656 51.8603 7.272C52.2443 6.888 52.7243 6.696 53.3003 6.696C53.8763 6.696 54.3483 6.888 54.7163 7.272C55.0843 7.656 55.2683 8.136 55.2683 8.712C55.2683 9.272 55.0843 9.752 54.7163 10.152C54.3483 10.536 53.8763 10.728 53.3003 10.728ZM57.7101 24V6.576H61.3821V24H57.7101ZM63.9679 24V12.336H67.6399V24H63.9679ZM71.4319 24V17.184C71.4319 16.592 71.2479 16.136 70.8799 15.816C70.5279 15.48 70.0879 15.312 69.5599 15.312C69.1919 15.312 68.8639 15.392 68.5759 15.552C68.2879 15.696 68.0559 15.904 67.8799 16.176C67.7199 16.448 67.6399 16.784 67.6399 17.184L66.2239 16.56C66.2239 15.632 66.4239 14.84 66.8239 14.184C67.2239 13.512 67.7679 13 68.4559 12.648C69.1439 12.28 69.9199 12.096 70.7839 12.096C71.5999 12.096 72.3279 12.28 72.9679 12.648C73.6239 13.016 74.1439 13.528 74.5279 14.184C74.9119 14.84 75.1039 15.624 75.1039 16.536V24H71.4319ZM78.8959 24V17.184C78.8959 16.592 78.7119 16.136 78.3439 15.816C77.9919 15.48 77.5519 15.312 77.0239 15.312C76.6559 15.312 76.3279 15.392 76.0399 15.552C75.7519 15.696 75.5199 15.904 75.3439 16.176C75.1839 16.448 75.1039 16.784 75.1039 17.184L72.9919 16.896C73.0239 15.904 73.2559 15.056 73.6879 14.352C74.1359 13.632 74.7199 13.08 75.4399 12.696C76.1759 12.296 76.9999 12.096 77.9119 12.096C78.8079 12.096 79.5999 12.288 80.2879 12.672C80.9919 13.04 81.5439 13.576 81.9439 14.28C82.3599 14.968 82.5679 15.8 82.5679 16.776V24H78.8959ZM90.345 24.264C88.953 24.264 87.753 24.04 86.745 23.592C85.753 23.128 84.841 22.432 84.009 21.504L86.457 19.08C87.001 19.704 87.601 20.192 88.257 20.544C88.929 20.88 89.705 21.048 90.585 21.048C91.385 21.048 92.001 20.904 92.433 20.616C92.881 20.328 93.105 19.928 93.105 19.416C93.105 18.952 92.961 18.576 92.673 18.288C92.385 18 92.001 17.752 91.521 17.544C91.057 17.336 90.537 17.136 89.961 16.944C89.401 16.752 88.841 16.536 88.281 16.296C87.721 16.04 87.201 15.728 86.721 15.36C86.257 14.976 85.881 14.504 85.593 13.944C85.305 13.368 85.161 12.648 85.161 11.784C85.161 10.744 85.409 9.848 85.905 9.096C86.417 8.344 87.121 7.776 88.017 7.392C88.913 6.992 89.945 6.792 91.113 6.792C92.297 6.792 93.377 7 94.353 7.416C95.345 7.832 96.161 8.4 96.801 9.12L94.353 11.544C93.841 11.016 93.321 10.624 92.793 10.368C92.281 10.112 91.697 9.984 91.041 9.984C90.385 9.984 89.865 10.112 89.481 10.368C89.097 10.608 88.905 10.96 88.905 11.424C88.905 11.856 89.049 12.208 89.337 12.48C89.625 12.736 90.001 12.96 90.465 13.152C90.945 13.344 91.465 13.536 92.025 13.728C92.601 13.92 93.169 14.144 93.729 14.4C94.289 14.656 94.801 14.984 95.265 15.384C95.745 15.768 96.129 16.264 96.417 16.872C96.705 17.464 96.849 18.2 96.849 19.08C96.849 20.696 96.273 21.968 95.121 22.896C93.969 23.808 92.377 24.264 90.345 24.264ZM104.483 24.264C103.283 24.264 102.195 24 101.219 23.472C100.243 22.944 99.4749 22.216 98.9149 21.288C98.3549 20.36 98.0749 19.32 98.0749 18.168C98.0749 17 98.3549 15.96 98.9149 15.048C99.4909 14.12 100.267 13.392 101.243 12.864C102.219 12.336 103.315 12.072 104.531 12.072C105.443 12.072 106.275 12.232 107.027 12.552C107.795 12.856 108.475 13.32 109.067 13.944L106.715 16.296C106.443 15.992 106.123 15.768 105.755 15.624C105.403 15.48 104.995 15.408 104.531 15.408C104.003 15.408 103.531 15.528 103.115 15.768C102.715 15.992 102.395 16.312 102.155 16.728C101.931 17.128 101.819 17.6 101.819 18.144C101.819 18.688 101.931 19.168 102.155 19.584C102.395 20 102.723 20.328 103.139 20.568C103.555 20.808 104.019 20.928 104.531 20.928C105.011 20.928 105.435 20.848 105.803 20.688C106.187 20.512 106.515 20.272 106.787 19.968L109.115 22.32C108.507 22.96 107.819 23.448 107.051 23.784C106.283 24.104 105.427 24.264 104.483 24.264ZM116.084 24.264C114.884 24.264 113.796 24 112.82 23.472C111.86 22.928 111.1 22.192 110.54 21.264C109.98 20.336 109.7 19.296 109.7 18.144C109.7 16.992 109.98 15.96 110.54 15.048C111.1 14.136 111.86 13.416 112.82 12.888C113.78 12.344 114.868 12.072 116.084 12.072C117.3 12.072 118.388 12.336 119.348 12.864C120.308 13.392 121.068 14.12 121.628 15.048C122.188 15.96 122.468 16.992 122.468 18.144C122.468 19.296 122.188 20.336 121.628 21.264C121.068 22.192 120.308 22.928 119.348 23.472C118.388 24 117.3 24.264 116.084 24.264ZM116.084 20.928C116.612 20.928 117.076 20.816 117.476 20.592C117.876 20.352 118.18 20.024 118.388 19.608C118.612 19.176 118.724 18.688 118.724 18.144C118.724 17.6 118.612 17.128 118.388 16.728C118.164 16.312 117.852 15.992 117.452 15.768C117.068 15.528 116.612 15.408 116.084 15.408C115.572 15.408 115.116 15.528 114.716 15.768C114.316 15.992 114.004 16.312 113.78 16.728C113.556 17.144 113.444 17.624 113.444 18.168C113.444 18.696 113.556 19.176 113.78 19.608C114.004 20.024 114.316 20.352 114.716 20.592C115.116 20.816 115.572 20.928 116.084 20.928ZM131.016 24.24C130.232 24.24 129.512 24.088 128.856 23.784C128.2 23.48 127.664 23.064 127.248 22.536C126.832 21.992 126.592 21.376 126.528 20.688V15.768C126.592 15.08 126.832 14.456 127.248 13.896C127.664 13.336 128.2 12.896 128.856 12.576C129.512 12.256 130.232 12.096 131.016 12.096C132.12 12.096 133.096 12.36 133.944 12.888C134.808 13.416 135.48 14.136 135.96 15.048C136.456 15.96 136.704 17 136.704 18.168C136.704 19.336 136.456 20.376 135.96 21.288C135.48 22.2 134.808 22.92 133.944 23.448C133.096 23.976 132.12 24.24 131.016 24.24ZM130.344 20.928C130.872 20.928 131.328 20.808 131.712 20.568C132.112 20.328 132.424 20 132.648 19.584C132.872 19.168 132.984 18.696 132.984 18.168C132.984 17.624 132.872 17.144 132.648 16.728C132.424 16.312 132.112 15.992 131.712 15.768C131.328 15.528 130.88 15.408 130.368 15.408C129.856 15.408 129.4 15.528 129 15.768C128.616 15.992 128.312 16.312 128.088 16.728C127.864 17.144 127.752 17.624 127.752 18.168C127.752 18.696 127.856 19.168 128.064 19.584C128.288 20 128.6 20.328 129 20.568C129.4 20.808 129.848 20.928 130.344 20.928ZM124.296 28.92V12.336H127.968V15.336L127.368 18.168L127.92 21V28.92H124.296ZM144.329 24.264C143.065 24.264 141.937 24.008 140.945 23.496C139.969 22.968 139.201 22.24 138.641 21.312C138.081 20.384 137.801 19.336 137.801 18.168C137.801 17 138.073 15.96 138.617 15.048C139.177 14.12 139.929 13.392 140.873 12.864C141.817 12.336 142.881 12.072 144.065 12.072C145.217 12.072 146.233 12.32 147.113 12.816C147.993 13.312 148.681 14 149.177 14.88C149.689 15.76 149.945 16.768 149.945 17.904C149.945 18.112 149.929 18.336 149.897 18.576C149.881 18.8 149.841 19.064 149.777 19.368L139.721 19.392V16.872L148.217 16.848L146.633 17.904C146.617 17.232 146.513 16.68 146.321 16.248C146.129 15.8 145.841 15.464 145.457 15.24C145.089 15 144.633 14.88 144.089 14.88C143.513 14.88 143.009 15.016 142.577 15.288C142.161 15.544 141.833 15.912 141.593 16.392C141.369 16.872 141.257 17.456 141.257 18.144C141.257 18.832 141.377 19.424 141.617 19.92C141.873 20.4 142.225 20.776 142.673 21.048C143.137 21.304 143.681 21.432 144.305 21.432C144.881 21.432 145.401 21.336 145.865 21.144C146.329 20.936 146.737 20.632 147.089 20.232L149.105 22.248C148.529 22.92 147.833 23.424 147.017 23.76C146.201 24.096 145.305 24.264 144.329 24.264Z" fill="white"/>
</svg>
